<mxfile host="app.diagrams.net" modified="2023-01-13T20:47:35.375Z" agent="5.0 (Windows NT 10.0; Win64; x64) AppleWebKit/537.36 (KHTML, like Gecko) Chrome/108.0.0.0 Safari/537.36" version="20.8.5" etag="Ux8eti1buZDq12LiVVL1" type="github">
  <diagram id="kRqrW6ToROf86XRqg3EB" name="Page-1">
    <mxGraphModel dx="2331" dy="831" grid="1" gridSize="10" guides="1" tooltips="1" connect="1" arrows="1" fold="1" page="1" pageScale="1" pageWidth="850" pageHeight="1100" background="#ffffff" math="0" shadow="0">
      <root>
        <mxCell id="0" />
        <mxCell id="1" parent="0" />
        <mxCell id="rJPONR8tclXAnTBPyJmb-1" value="Artista" style="rounded=0;whiteSpace=wrap;html=1;" vertex="1" parent="1">
          <mxGeometry x="140" y="90" width="120" height="60" as="geometry" />
        </mxCell>
        <mxCell id="rJPONR8tclXAnTBPyJmb-2" style="edgeStyle=orthogonalEdgeStyle;rounded=0;orthogonalLoop=1;jettySize=auto;html=1;exitX=0.75;exitY=1;exitDx=0;exitDy=0;entryX=0.666;entryY=1.083;entryDx=0;entryDy=0;entryPerimeter=0;" edge="1" parent="1" source="rJPONR8tclXAnTBPyJmb-1" target="rJPONR8tclXAnTBPyJmb-1">
          <mxGeometry relative="1" as="geometry" />
        </mxCell>
        <mxCell id="rJPONR8tclXAnTBPyJmb-83" style="edgeStyle=orthogonalEdgeStyle;rounded=0;orthogonalLoop=1;jettySize=auto;html=1;exitX=0.25;exitY=1;exitDx=0;exitDy=0;fontSize=22;startArrow=none;startFill=0;endArrow=none;endFill=0;" edge="1" parent="1">
          <mxGeometry relative="1" as="geometry">
            <mxPoint x="605" y="415" as="targetPoint" />
            <mxPoint x="605" y="150" as="sourcePoint" />
          </mxGeometry>
        </mxCell>
        <mxCell id="rJPONR8tclXAnTBPyJmb-133" style="edgeStyle=orthogonalEdgeStyle;rounded=0;orthogonalLoop=1;jettySize=auto;html=1;exitX=1;exitY=0.5;exitDx=0;exitDy=0;fontSize=22;startArrow=none;startFill=0;endArrow=none;endFill=0;" edge="1" parent="1" source="rJPONR8tclXAnTBPyJmb-3">
          <mxGeometry relative="1" as="geometry">
            <mxPoint x="605" y="170" as="targetPoint" />
          </mxGeometry>
        </mxCell>
        <mxCell id="rJPONR8tclXAnTBPyJmb-3" value="Música" style="rounded=0;whiteSpace=wrap;html=1;" vertex="1" parent="1">
          <mxGeometry x="460" y="90" width="120" height="60" as="geometry" />
        </mxCell>
        <mxCell id="rJPONR8tclXAnTBPyJmb-16" style="edgeStyle=none;rounded=0;orthogonalLoop=1;jettySize=auto;html=1;exitX=0;exitY=1;exitDx=0;exitDy=0;entryX=0.5;entryY=0;entryDx=0;entryDy=0;startArrow=none;startFill=0;endArrow=none;endFill=0;" edge="1" parent="1" source="rJPONR8tclXAnTBPyJmb-4" target="rJPONR8tclXAnTBPyJmb-11">
          <mxGeometry relative="1" as="geometry" />
        </mxCell>
        <mxCell id="rJPONR8tclXAnTBPyJmb-24" style="edgeStyle=none;rounded=0;orthogonalLoop=1;jettySize=auto;html=1;exitX=0;exitY=0.75;exitDx=0;exitDy=0;entryX=1;entryY=0.25;entryDx=0;entryDy=0;entryPerimeter=0;startArrow=none;startFill=0;endArrow=none;endFill=0;" edge="1" parent="1" source="rJPONR8tclXAnTBPyJmb-4" target="rJPONR8tclXAnTBPyJmb-20">
          <mxGeometry relative="1" as="geometry" />
        </mxCell>
        <mxCell id="rJPONR8tclXAnTBPyJmb-25" style="edgeStyle=none;rounded=0;orthogonalLoop=1;jettySize=auto;html=1;entryX=1;entryY=0.5;entryDx=0;entryDy=0;startArrow=none;startFill=0;endArrow=none;endFill=0;" edge="1" parent="1" source="rJPONR8tclXAnTBPyJmb-4" target="rJPONR8tclXAnTBPyJmb-19">
          <mxGeometry relative="1" as="geometry" />
        </mxCell>
        <mxCell id="rJPONR8tclXAnTBPyJmb-27" style="edgeStyle=none;rounded=0;orthogonalLoop=1;jettySize=auto;html=1;exitX=0.25;exitY=1;exitDx=0;exitDy=0;entryX=0.5;entryY=0;entryDx=0;entryDy=0;startArrow=none;startFill=0;endArrow=none;endFill=0;" edge="1" parent="1" source="rJPONR8tclXAnTBPyJmb-4" target="rJPONR8tclXAnTBPyJmb-17">
          <mxGeometry relative="1" as="geometry" />
        </mxCell>
        <mxCell id="rJPONR8tclXAnTBPyJmb-28" style="edgeStyle=none;rounded=0;orthogonalLoop=1;jettySize=auto;html=1;exitX=0.5;exitY=1;exitDx=0;exitDy=0;entryX=0.5;entryY=0;entryDx=0;entryDy=0;startArrow=none;startFill=0;endArrow=none;endFill=0;" edge="1" parent="1" source="rJPONR8tclXAnTBPyJmb-4" target="rJPONR8tclXAnTBPyJmb-18">
          <mxGeometry relative="1" as="geometry" />
        </mxCell>
        <mxCell id="rJPONR8tclXAnTBPyJmb-29" style="edgeStyle=none;rounded=0;orthogonalLoop=1;jettySize=auto;html=1;exitX=0.75;exitY=1;exitDx=0;exitDy=0;entryX=0.5;entryY=0;entryDx=0;entryDy=0;startArrow=none;startFill=0;endArrow=none;endFill=0;" edge="1" parent="1" source="rJPONR8tclXAnTBPyJmb-4" target="rJPONR8tclXAnTBPyJmb-21">
          <mxGeometry relative="1" as="geometry" />
        </mxCell>
        <mxCell id="rJPONR8tclXAnTBPyJmb-30" style="edgeStyle=none;rounded=0;orthogonalLoop=1;jettySize=auto;html=1;exitX=1;exitY=1;exitDx=0;exitDy=0;entryX=0;entryY=0;entryDx=0;entryDy=0;startArrow=none;startFill=0;endArrow=none;endFill=0;" edge="1" parent="1" source="rJPONR8tclXAnTBPyJmb-4" target="rJPONR8tclXAnTBPyJmb-23">
          <mxGeometry relative="1" as="geometry" />
        </mxCell>
        <mxCell id="rJPONR8tclXAnTBPyJmb-31" style="edgeStyle=none;rounded=0;orthogonalLoop=1;jettySize=auto;html=1;exitX=1;exitY=0.75;exitDx=0;exitDy=0;entryX=0;entryY=0.5;entryDx=0;entryDy=0;startArrow=none;startFill=0;endArrow=none;endFill=0;" edge="1" parent="1" source="rJPONR8tclXAnTBPyJmb-4" target="rJPONR8tclXAnTBPyJmb-22">
          <mxGeometry relative="1" as="geometry" />
        </mxCell>
        <mxCell id="rJPONR8tclXAnTBPyJmb-4" value="Lançamento" style="rounded=0;whiteSpace=wrap;html=1;fillColor=#FFFFFF;" vertex="1" parent="1">
          <mxGeometry x="-450" y="670" width="120" height="60" as="geometry" />
        </mxCell>
        <mxCell id="rJPONR8tclXAnTBPyJmb-11" value="Título do Álbum" style="ellipse;whiteSpace=wrap;html=1;" vertex="1" parent="1">
          <mxGeometry x="60" y="430" width="80" height="40" as="geometry" />
        </mxCell>
        <mxCell id="rJPONR8tclXAnTBPyJmb-17" value="Duração do álbum" style="ellipse;whiteSpace=wrap;html=1;" vertex="1" parent="1">
          <mxGeometry x="40" y="510" width="80" height="40" as="geometry" />
        </mxCell>
        <mxCell id="rJPONR8tclXAnTBPyJmb-18" value="Quantidade de músicas" style="ellipse;whiteSpace=wrap;html=1;" vertex="1" parent="1">
          <mxGeometry x="110" y="470" width="80" height="40" as="geometry" />
        </mxCell>
        <mxCell id="rJPONR8tclXAnTBPyJmb-19" value="Artista" style="ellipse;whiteSpace=wrap;html=1;" vertex="1" parent="1">
          <mxGeometry x="20" y="350" width="80" height="40" as="geometry" />
        </mxCell>
        <mxCell id="rJPONR8tclXAnTBPyJmb-20" value="Tipo" style="ellipse;whiteSpace=wrap;html=1;" vertex="1" parent="1">
          <mxGeometry x="20" y="390" width="80" height="40" as="geometry" />
        </mxCell>
        <mxCell id="rJPONR8tclXAnTBPyJmb-21" value="Publicação" style="ellipse;whiteSpace=wrap;html=1;" vertex="1" parent="1">
          <mxGeometry x="150" y="510" width="80" height="40" as="geometry" />
        </mxCell>
        <mxCell id="rJPONR8tclXAnTBPyJmb-22" value="Genero" style="ellipse;whiteSpace=wrap;html=1;" vertex="1" parent="1">
          <mxGeometry x="270" y="410" width="80" height="40" as="geometry" />
        </mxCell>
        <mxCell id="rJPONR8tclXAnTBPyJmb-23" value="Copyright" style="ellipse;whiteSpace=wrap;html=1;" vertex="1" parent="1">
          <mxGeometry x="230" y="460" width="80" height="40" as="geometry" />
        </mxCell>
        <mxCell id="rJPONR8tclXAnTBPyJmb-34" value="" style="shape=process;whiteSpace=wrap;html=1;backgroundOutline=1;fillColor=#000000;" vertex="1" parent="1">
          <mxGeometry x="150" y="680" width="120" height="60" as="geometry" />
        </mxCell>
        <mxCell id="rJPONR8tclXAnTBPyJmb-35" value="" style="ellipse;whiteSpace=wrap;html=1;aspect=fixed;fillColor=#000000;" vertex="1" parent="1">
          <mxGeometry x="90" y="780" width="80" height="80" as="geometry" />
        </mxCell>
        <mxCell id="rJPONR8tclXAnTBPyJmb-36" value="hrdr" style="text;html=1;align=center;verticalAlign=middle;resizable=0;points=[];autosize=1;strokeColor=none;fillColor=none;" vertex="1" parent="1">
          <mxGeometry x="170" y="795" width="40" height="30" as="geometry" />
        </mxCell>
        <mxCell id="rJPONR8tclXAnTBPyJmb-84" style="edgeStyle=orthogonalEdgeStyle;rounded=0;orthogonalLoop=1;jettySize=auto;html=1;exitX=0;exitY=0.5;exitDx=0;exitDy=0;fontSize=22;startArrow=none;startFill=0;endArrow=none;endFill=0;" edge="1" parent="1" source="rJPONR8tclXAnTBPyJmb-37">
          <mxGeometry relative="1" as="geometry">
            <mxPoint x="605" y="183" as="targetPoint" />
          </mxGeometry>
        </mxCell>
        <mxCell id="rJPONR8tclXAnTBPyJmb-37" value="" style="ellipse;whiteSpace=wrap;html=1;aspect=fixed;fillColor=#FFFFFF;" vertex="1" parent="1">
          <mxGeometry x="630" y="175" width="15" height="15" as="geometry" />
        </mxCell>
        <mxCell id="rJPONR8tclXAnTBPyJmb-38" value="Titulo" style="text;html=1;align=center;verticalAlign=middle;resizable=0;points=[];autosize=1;strokeColor=none;fillColor=none;" vertex="1" parent="1">
          <mxGeometry x="640" y="167.5" width="50" height="30" as="geometry" />
        </mxCell>
        <mxCell id="rJPONR8tclXAnTBPyJmb-86" style="edgeStyle=orthogonalEdgeStyle;rounded=0;orthogonalLoop=1;jettySize=auto;html=1;exitX=0;exitY=0.5;exitDx=0;exitDy=0;fontSize=22;startArrow=none;startFill=0;endArrow=none;endFill=0;" edge="1" parent="1" source="rJPONR8tclXAnTBPyJmb-62">
          <mxGeometry relative="1" as="geometry">
            <mxPoint x="605" y="204.95238095238096" as="targetPoint" />
          </mxGeometry>
        </mxCell>
        <mxCell id="rJPONR8tclXAnTBPyJmb-62" value="" style="ellipse;whiteSpace=wrap;html=1;aspect=fixed;fillColor=#FFFFFF;" vertex="1" parent="1">
          <mxGeometry x="630" y="197.5" width="15" height="15" as="geometry" />
        </mxCell>
        <mxCell id="rJPONR8tclXAnTBPyJmb-63" value="Artista" style="text;html=1;align=center;verticalAlign=middle;resizable=0;points=[];autosize=1;strokeColor=none;fillColor=none;" vertex="1" parent="1">
          <mxGeometry x="640" y="190" width="60" height="30" as="geometry" />
        </mxCell>
        <mxCell id="rJPONR8tclXAnTBPyJmb-87" style="edgeStyle=orthogonalEdgeStyle;rounded=0;orthogonalLoop=1;jettySize=auto;html=1;exitX=0;exitY=0.5;exitDx=0;exitDy=0;fontSize=22;startArrow=none;startFill=0;endArrow=none;endFill=0;" edge="1" parent="1" source="rJPONR8tclXAnTBPyJmb-64">
          <mxGeometry relative="1" as="geometry">
            <mxPoint x="605" y="234.95238095238096" as="targetPoint" />
          </mxGeometry>
        </mxCell>
        <mxCell id="rJPONR8tclXAnTBPyJmb-64" value="" style="ellipse;whiteSpace=wrap;html=1;aspect=fixed;fillColor=#FFFFFF;" vertex="1" parent="1">
          <mxGeometry x="630" y="227.5" width="15" height="15" as="geometry" />
        </mxCell>
        <mxCell id="rJPONR8tclXAnTBPyJmb-65" value="Letra" style="text;html=1;align=center;verticalAlign=middle;resizable=0;points=[];autosize=1;strokeColor=none;fillColor=none;" vertex="1" parent="1">
          <mxGeometry x="640" y="220" width="50" height="30" as="geometry" />
        </mxCell>
        <mxCell id="rJPONR8tclXAnTBPyJmb-90" style="edgeStyle=orthogonalEdgeStyle;rounded=0;orthogonalLoop=1;jettySize=auto;html=1;exitX=0;exitY=0.5;exitDx=0;exitDy=0;fontSize=22;startArrow=none;startFill=0;endArrow=none;endFill=0;" edge="1" parent="1" source="rJPONR8tclXAnTBPyJmb-66">
          <mxGeometry relative="1" as="geometry">
            <mxPoint x="605" y="257.33333333333326" as="targetPoint" />
          </mxGeometry>
        </mxCell>
        <mxCell id="rJPONR8tclXAnTBPyJmb-66" value="" style="ellipse;whiteSpace=wrap;html=1;aspect=fixed;fillColor=#FFFFFF;" vertex="1" parent="1">
          <mxGeometry x="630" y="250" width="15" height="15" as="geometry" />
        </mxCell>
        <mxCell id="rJPONR8tclXAnTBPyJmb-67" value="Duração" style="text;html=1;align=center;verticalAlign=middle;resizable=0;points=[];autosize=1;strokeColor=none;fillColor=none;" vertex="1" parent="1">
          <mxGeometry x="640" y="242.5" width="70" height="30" as="geometry" />
        </mxCell>
        <mxCell id="rJPONR8tclXAnTBPyJmb-91" style="edgeStyle=orthogonalEdgeStyle;rounded=0;orthogonalLoop=1;jettySize=auto;html=1;exitX=0;exitY=0.5;exitDx=0;exitDy=0;fontSize=22;startArrow=none;startFill=0;endArrow=none;endFill=0;" edge="1" parent="1" source="rJPONR8tclXAnTBPyJmb-71">
          <mxGeometry relative="1" as="geometry">
            <mxPoint x="605" y="287.33333333333326" as="targetPoint" />
          </mxGeometry>
        </mxCell>
        <mxCell id="rJPONR8tclXAnTBPyJmb-71" value="" style="ellipse;whiteSpace=wrap;html=1;aspect=fixed;fillColor=#FFFFFF;" vertex="1" parent="1">
          <mxGeometry x="630" y="280" width="15" height="15" as="geometry" />
        </mxCell>
        <mxCell id="rJPONR8tclXAnTBPyJmb-72" value="Reproduções" style="text;html=1;align=center;verticalAlign=middle;resizable=0;points=[];autosize=1;strokeColor=none;fillColor=none;" vertex="1" parent="1">
          <mxGeometry x="640" y="272.5" width="90" height="30" as="geometry" />
        </mxCell>
        <mxCell id="rJPONR8tclXAnTBPyJmb-94" style="edgeStyle=orthogonalEdgeStyle;rounded=0;orthogonalLoop=1;jettySize=auto;html=1;exitX=0;exitY=0.5;exitDx=0;exitDy=0;fontSize=22;startArrow=none;startFill=0;endArrow=none;endFill=0;" edge="1" parent="1" source="rJPONR8tclXAnTBPyJmb-73">
          <mxGeometry relative="1" as="geometry">
            <mxPoint x="605" y="310.19047619047615" as="targetPoint" />
          </mxGeometry>
        </mxCell>
        <mxCell id="rJPONR8tclXAnTBPyJmb-73" value="" style="ellipse;whiteSpace=wrap;html=1;aspect=fixed;fillColor=#FFFFFF;" vertex="1" parent="1">
          <mxGeometry x="630" y="302.5" width="15" height="15" as="geometry" />
        </mxCell>
        <mxCell id="rJPONR8tclXAnTBPyJmb-74" value="Gênero" style="text;html=1;align=center;verticalAlign=middle;resizable=0;points=[];autosize=1;strokeColor=none;fillColor=none;" vertex="1" parent="1">
          <mxGeometry x="640" y="295" width="60" height="30" as="geometry" />
        </mxCell>
        <mxCell id="rJPONR8tclXAnTBPyJmb-95" style="edgeStyle=orthogonalEdgeStyle;rounded=0;orthogonalLoop=1;jettySize=auto;html=1;exitX=0;exitY=0.5;exitDx=0;exitDy=0;fontSize=22;startArrow=none;startFill=0;endArrow=none;endFill=0;" edge="1" parent="1" source="rJPONR8tclXAnTBPyJmb-75">
          <mxGeometry relative="1" as="geometry">
            <mxPoint x="605" y="340.19047619047615" as="targetPoint" />
          </mxGeometry>
        </mxCell>
        <mxCell id="rJPONR8tclXAnTBPyJmb-75" value="" style="ellipse;whiteSpace=wrap;html=1;aspect=fixed;fillColor=#FFFFFF;" vertex="1" parent="1">
          <mxGeometry x="630" y="332.5" width="15" height="15" as="geometry" />
        </mxCell>
        <mxCell id="rJPONR8tclXAnTBPyJmb-76" value="Lançamento" style="text;html=1;align=center;verticalAlign=middle;resizable=0;points=[];autosize=1;strokeColor=none;fillColor=none;" vertex="1" parent="1">
          <mxGeometry x="640" y="325" width="90" height="30" as="geometry" />
        </mxCell>
        <mxCell id="rJPONR8tclXAnTBPyJmb-97" style="edgeStyle=orthogonalEdgeStyle;rounded=0;orthogonalLoop=1;jettySize=auto;html=1;exitX=0;exitY=0.5;exitDx=0;exitDy=0;fontSize=22;startArrow=none;startFill=0;endArrow=none;endFill=0;" edge="1" parent="1" source="rJPONR8tclXAnTBPyJmb-77">
          <mxGeometry relative="1" as="geometry">
            <mxPoint x="605" y="362.57142857142856" as="targetPoint" />
          </mxGeometry>
        </mxCell>
        <mxCell id="rJPONR8tclXAnTBPyJmb-77" value="" style="ellipse;whiteSpace=wrap;html=1;aspect=fixed;fillColor=#FFFFFF;" vertex="1" parent="1">
          <mxGeometry x="630" y="355" width="15" height="15" as="geometry" />
        </mxCell>
        <mxCell id="rJPONR8tclXAnTBPyJmb-78" value="Interprete" style="text;html=1;align=center;verticalAlign=middle;resizable=0;points=[];autosize=1;strokeColor=none;fillColor=none;" vertex="1" parent="1">
          <mxGeometry x="640" y="347.5" width="70" height="30" as="geometry" />
        </mxCell>
        <mxCell id="rJPONR8tclXAnTBPyJmb-98" style="edgeStyle=orthogonalEdgeStyle;rounded=0;orthogonalLoop=1;jettySize=auto;html=1;exitX=0;exitY=0.5;exitDx=0;exitDy=0;fontSize=22;startArrow=none;startFill=0;endArrow=none;endFill=0;" edge="1" parent="1" source="rJPONR8tclXAnTBPyJmb-79">
          <mxGeometry relative="1" as="geometry">
            <mxPoint x="605" y="392.57142857142856" as="targetPoint" />
          </mxGeometry>
        </mxCell>
        <mxCell id="rJPONR8tclXAnTBPyJmb-79" value="" style="ellipse;whiteSpace=wrap;html=1;aspect=fixed;fillColor=#FFFFFF;" vertex="1" parent="1">
          <mxGeometry x="630" y="385" width="15" height="15" as="geometry" />
        </mxCell>
        <mxCell id="rJPONR8tclXAnTBPyJmb-80" value="Compositor" style="text;html=1;align=center;verticalAlign=middle;resizable=0;points=[];autosize=1;strokeColor=none;fillColor=none;" vertex="1" parent="1">
          <mxGeometry x="640" y="377.5" width="80" height="30" as="geometry" />
        </mxCell>
        <mxCell id="rJPONR8tclXAnTBPyJmb-99" style="edgeStyle=orthogonalEdgeStyle;rounded=0;orthogonalLoop=1;jettySize=auto;html=1;exitX=0;exitY=0.5;exitDx=0;exitDy=0;fontSize=22;startArrow=none;startFill=0;endArrow=none;endFill=0;" edge="1" parent="1" source="rJPONR8tclXAnTBPyJmb-81">
          <mxGeometry relative="1" as="geometry">
            <mxPoint x="605" y="414.95238095238096" as="targetPoint" />
          </mxGeometry>
        </mxCell>
        <mxCell id="rJPONR8tclXAnTBPyJmb-81" value="" style="ellipse;whiteSpace=wrap;html=1;aspect=fixed;fillColor=#FFFFFF;" vertex="1" parent="1">
          <mxGeometry x="630" y="407.5" width="15" height="15" as="geometry" />
        </mxCell>
        <mxCell id="rJPONR8tclXAnTBPyJmb-82" value="Produtor" style="text;html=1;align=center;verticalAlign=middle;resizable=0;points=[];autosize=1;strokeColor=none;fillColor=none;" vertex="1" parent="1">
          <mxGeometry x="640" y="400" width="70" height="30" as="geometry" />
        </mxCell>
        <mxCell id="rJPONR8tclXAnTBPyJmb-100" style="edgeStyle=orthogonalEdgeStyle;rounded=0;orthogonalLoop=1;jettySize=auto;html=1;exitX=0.25;exitY=1;exitDx=0;exitDy=0;fontSize=22;startArrow=none;startFill=0;endArrow=none;endFill=0;" edge="1" parent="1" source="rJPONR8tclXAnTBPyJmb-101">
          <mxGeometry relative="1" as="geometry">
            <mxPoint x="480" y="795" as="targetPoint" />
          </mxGeometry>
        </mxCell>
        <mxCell id="rJPONR8tclXAnTBPyJmb-101" value="Música" style="rounded=0;whiteSpace=wrap;html=1;" vertex="1" parent="1">
          <mxGeometry x="450" y="470" width="120" height="60" as="geometry" />
        </mxCell>
        <mxCell id="rJPONR8tclXAnTBPyJmb-102" style="edgeStyle=orthogonalEdgeStyle;rounded=0;orthogonalLoop=1;jettySize=auto;html=1;exitX=0;exitY=0.5;exitDx=0;exitDy=0;fontSize=22;startArrow=none;startFill=0;endArrow=none;endFill=0;" edge="1" parent="1" source="rJPONR8tclXAnTBPyJmb-103">
          <mxGeometry relative="1" as="geometry">
            <mxPoint x="480" y="563" as="targetPoint" />
          </mxGeometry>
        </mxCell>
        <mxCell id="rJPONR8tclXAnTBPyJmb-103" value="" style="ellipse;whiteSpace=wrap;html=1;aspect=fixed;fillColor=#FFFFFF;" vertex="1" parent="1">
          <mxGeometry x="505" y="555" width="15" height="15" as="geometry" />
        </mxCell>
        <mxCell id="rJPONR8tclXAnTBPyJmb-104" value="Titulo" style="text;html=1;align=center;verticalAlign=middle;resizable=0;points=[];autosize=1;strokeColor=none;fillColor=none;" vertex="1" parent="1">
          <mxGeometry x="515" y="547.5" width="50" height="30" as="geometry" />
        </mxCell>
        <mxCell id="rJPONR8tclXAnTBPyJmb-105" style="edgeStyle=orthogonalEdgeStyle;rounded=0;orthogonalLoop=1;jettySize=auto;html=1;exitX=0;exitY=0.5;exitDx=0;exitDy=0;fontSize=22;startArrow=none;startFill=0;endArrow=none;endFill=0;" edge="1" parent="1" source="rJPONR8tclXAnTBPyJmb-106">
          <mxGeometry relative="1" as="geometry">
            <mxPoint x="480" y="584.952380952381" as="targetPoint" />
          </mxGeometry>
        </mxCell>
        <mxCell id="rJPONR8tclXAnTBPyJmb-106" value="" style="ellipse;whiteSpace=wrap;html=1;aspect=fixed;fillColor=#FFFFFF;" vertex="1" parent="1">
          <mxGeometry x="505" y="577.5" width="15" height="15" as="geometry" />
        </mxCell>
        <mxCell id="rJPONR8tclXAnTBPyJmb-107" value="Artista" style="text;html=1;align=center;verticalAlign=middle;resizable=0;points=[];autosize=1;strokeColor=none;fillColor=none;" vertex="1" parent="1">
          <mxGeometry x="510" y="570" width="60" height="30" as="geometry" />
        </mxCell>
        <mxCell id="rJPONR8tclXAnTBPyJmb-108" style="edgeStyle=orthogonalEdgeStyle;rounded=0;orthogonalLoop=1;jettySize=auto;html=1;exitX=0;exitY=0.5;exitDx=0;exitDy=0;fontSize=22;startArrow=none;startFill=0;endArrow=none;endFill=0;" edge="1" parent="1" source="rJPONR8tclXAnTBPyJmb-109">
          <mxGeometry relative="1" as="geometry">
            <mxPoint x="480" y="614.952380952381" as="targetPoint" />
          </mxGeometry>
        </mxCell>
        <mxCell id="rJPONR8tclXAnTBPyJmb-109" value="" style="ellipse;whiteSpace=wrap;html=1;aspect=fixed;fillColor=#FFFFFF;" vertex="1" parent="1">
          <mxGeometry x="505" y="607.5" width="15" height="15" as="geometry" />
        </mxCell>
        <mxCell id="rJPONR8tclXAnTBPyJmb-110" value="Letra" style="text;html=1;align=center;verticalAlign=middle;resizable=0;points=[];autosize=1;strokeColor=none;fillColor=none;" vertex="1" parent="1">
          <mxGeometry x="515" y="600" width="50" height="30" as="geometry" />
        </mxCell>
        <mxCell id="rJPONR8tclXAnTBPyJmb-111" style="edgeStyle=orthogonalEdgeStyle;rounded=0;orthogonalLoop=1;jettySize=auto;html=1;exitX=0;exitY=0.5;exitDx=0;exitDy=0;fontSize=22;startArrow=none;startFill=0;endArrow=none;endFill=0;" edge="1" parent="1" source="rJPONR8tclXAnTBPyJmb-112">
          <mxGeometry relative="1" as="geometry">
            <mxPoint x="480" y="637.3333333333333" as="targetPoint" />
          </mxGeometry>
        </mxCell>
        <mxCell id="rJPONR8tclXAnTBPyJmb-112" value="" style="ellipse;whiteSpace=wrap;html=1;aspect=fixed;fillColor=#FFFFFF;" vertex="1" parent="1">
          <mxGeometry x="505" y="630" width="15" height="15" as="geometry" />
        </mxCell>
        <mxCell id="rJPONR8tclXAnTBPyJmb-113" value="Duração" style="text;html=1;align=center;verticalAlign=middle;resizable=0;points=[];autosize=1;strokeColor=none;fillColor=none;" vertex="1" parent="1">
          <mxGeometry x="515" y="622.5" width="70" height="30" as="geometry" />
        </mxCell>
        <mxCell id="rJPONR8tclXAnTBPyJmb-114" style="edgeStyle=orthogonalEdgeStyle;rounded=0;orthogonalLoop=1;jettySize=auto;html=1;exitX=0;exitY=0.5;exitDx=0;exitDy=0;fontSize=22;startArrow=none;startFill=0;endArrow=none;endFill=0;" edge="1" parent="1" source="rJPONR8tclXAnTBPyJmb-115">
          <mxGeometry relative="1" as="geometry">
            <mxPoint x="480" y="667.3333333333333" as="targetPoint" />
          </mxGeometry>
        </mxCell>
        <mxCell id="rJPONR8tclXAnTBPyJmb-115" value="" style="ellipse;whiteSpace=wrap;html=1;aspect=fixed;fillColor=#FFFFFF;" vertex="1" parent="1">
          <mxGeometry x="505" y="660" width="15" height="15" as="geometry" />
        </mxCell>
        <mxCell id="rJPONR8tclXAnTBPyJmb-116" value="Reproduções" style="text;html=1;align=center;verticalAlign=middle;resizable=0;points=[];autosize=1;strokeColor=none;fillColor=none;" vertex="1" parent="1">
          <mxGeometry x="515" y="652.5" width="90" height="30" as="geometry" />
        </mxCell>
        <mxCell id="rJPONR8tclXAnTBPyJmb-117" style="edgeStyle=orthogonalEdgeStyle;rounded=0;orthogonalLoop=1;jettySize=auto;html=1;exitX=0;exitY=0.5;exitDx=0;exitDy=0;fontSize=22;startArrow=none;startFill=0;endArrow=none;endFill=0;" edge="1" parent="1" source="rJPONR8tclXAnTBPyJmb-118">
          <mxGeometry relative="1" as="geometry">
            <mxPoint x="480" y="690.1904761904761" as="targetPoint" />
          </mxGeometry>
        </mxCell>
        <mxCell id="rJPONR8tclXAnTBPyJmb-118" value="" style="ellipse;whiteSpace=wrap;html=1;aspect=fixed;fillColor=#FFFFFF;" vertex="1" parent="1">
          <mxGeometry x="505" y="682.5" width="15" height="15" as="geometry" />
        </mxCell>
        <mxCell id="rJPONR8tclXAnTBPyJmb-119" value="Gênero" style="text;html=1;align=center;verticalAlign=middle;resizable=0;points=[];autosize=1;strokeColor=none;fillColor=none;" vertex="1" parent="1">
          <mxGeometry x="515" y="675" width="60" height="30" as="geometry" />
        </mxCell>
        <mxCell id="rJPONR8tclXAnTBPyJmb-120" style="edgeStyle=orthogonalEdgeStyle;rounded=0;orthogonalLoop=1;jettySize=auto;html=1;exitX=0;exitY=0.5;exitDx=0;exitDy=0;fontSize=22;startArrow=none;startFill=0;endArrow=none;endFill=0;" edge="1" parent="1" source="rJPONR8tclXAnTBPyJmb-121">
          <mxGeometry relative="1" as="geometry">
            <mxPoint x="480" y="720.1904761904761" as="targetPoint" />
          </mxGeometry>
        </mxCell>
        <mxCell id="rJPONR8tclXAnTBPyJmb-121" value="" style="ellipse;whiteSpace=wrap;html=1;aspect=fixed;fillColor=#FFFFFF;" vertex="1" parent="1">
          <mxGeometry x="505" y="712.5" width="15" height="15" as="geometry" />
        </mxCell>
        <mxCell id="rJPONR8tclXAnTBPyJmb-122" value="Lançamento" style="text;html=1;align=center;verticalAlign=middle;resizable=0;points=[];autosize=1;strokeColor=none;fillColor=none;" vertex="1" parent="1">
          <mxGeometry x="515" y="705" width="90" height="30" as="geometry" />
        </mxCell>
        <mxCell id="rJPONR8tclXAnTBPyJmb-123" style="edgeStyle=orthogonalEdgeStyle;rounded=0;orthogonalLoop=1;jettySize=auto;html=1;exitX=0;exitY=0.5;exitDx=0;exitDy=0;fontSize=22;startArrow=none;startFill=0;endArrow=none;endFill=0;" edge="1" parent="1" source="rJPONR8tclXAnTBPyJmb-124">
          <mxGeometry relative="1" as="geometry">
            <mxPoint x="480" y="742.5714285714284" as="targetPoint" />
          </mxGeometry>
        </mxCell>
        <mxCell id="rJPONR8tclXAnTBPyJmb-124" value="" style="ellipse;whiteSpace=wrap;html=1;aspect=fixed;fillColor=#FFFFFF;" vertex="1" parent="1">
          <mxGeometry x="505" y="735" width="15" height="15" as="geometry" />
        </mxCell>
        <mxCell id="rJPONR8tclXAnTBPyJmb-125" value="Interprete" style="text;html=1;align=center;verticalAlign=middle;resizable=0;points=[];autosize=1;strokeColor=none;fillColor=none;" vertex="1" parent="1">
          <mxGeometry x="515" y="727.5" width="70" height="30" as="geometry" />
        </mxCell>
        <mxCell id="rJPONR8tclXAnTBPyJmb-126" style="edgeStyle=orthogonalEdgeStyle;rounded=0;orthogonalLoop=1;jettySize=auto;html=1;exitX=0;exitY=0.5;exitDx=0;exitDy=0;fontSize=22;startArrow=none;startFill=0;endArrow=none;endFill=0;" edge="1" parent="1" source="rJPONR8tclXAnTBPyJmb-127">
          <mxGeometry relative="1" as="geometry">
            <mxPoint x="480" y="772.5714285714284" as="targetPoint" />
          </mxGeometry>
        </mxCell>
        <mxCell id="rJPONR8tclXAnTBPyJmb-127" value="" style="ellipse;whiteSpace=wrap;html=1;aspect=fixed;fillColor=#FFFFFF;" vertex="1" parent="1">
          <mxGeometry x="505" y="765" width="15" height="15" as="geometry" />
        </mxCell>
        <mxCell id="rJPONR8tclXAnTBPyJmb-128" value="Compositor" style="text;html=1;align=center;verticalAlign=middle;resizable=0;points=[];autosize=1;strokeColor=none;fillColor=none;" vertex="1" parent="1">
          <mxGeometry x="515" y="757.5" width="80" height="30" as="geometry" />
        </mxCell>
        <mxCell id="rJPONR8tclXAnTBPyJmb-129" style="edgeStyle=orthogonalEdgeStyle;rounded=0;orthogonalLoop=1;jettySize=auto;html=1;exitX=0;exitY=0.5;exitDx=0;exitDy=0;fontSize=22;startArrow=none;startFill=0;endArrow=none;endFill=0;" edge="1" parent="1" source="rJPONR8tclXAnTBPyJmb-130">
          <mxGeometry relative="1" as="geometry">
            <mxPoint x="480" y="794.952380952381" as="targetPoint" />
          </mxGeometry>
        </mxCell>
        <mxCell id="rJPONR8tclXAnTBPyJmb-130" value="" style="ellipse;whiteSpace=wrap;html=1;aspect=fixed;fillColor=#FFFFFF;" vertex="1" parent="1">
          <mxGeometry x="505" y="787.5" width="15" height="15" as="geometry" />
        </mxCell>
        <mxCell id="rJPONR8tclXAnTBPyJmb-131" value="Produtor" style="text;html=1;align=center;verticalAlign=middle;resizable=0;points=[];autosize=1;strokeColor=none;fillColor=none;" vertex="1" parent="1">
          <mxGeometry x="515" y="780" width="70" height="30" as="geometry" />
        </mxCell>
      </root>
    </mxGraphModel>
  </diagram>
</mxfile>
